<?xml version="1.0" encoding="UTF-8"?>
<svg xmlns="http://www.w3.org/2000/svg" width="454" height="199" viewBox="0 0 454 199" role="img" aria-label="Magazzino Scipioni logo negativo invertito">
  <title>Magazzino Scipioni - negativo invertito</title>
  <path d="M 0 0 L 454 0 L 454 199 L 0 199 Z M 0 195 L 0 198 L 453 198 L 453 195 Z M 0 88 L 0 192 L 453 192 L 453 88 Z M 426 91 L 445 91 L 446 92 L 446 188 L 445 189 L 426 189 L 425 188 L 425 92 Z M 352 91 L 377 91 L 378 92 L 384 110 L 386 113 L 388 121 L 390 124 L 392 132 L 394 135 L 394 137 L 395 137 L 395 92 L 396 91 L 414 91 L 415 92 L 415 188 L 414 189 L 396 189 L 391 179 L 391 177 L 389 174 L 386 164 L 384 161 L 384 159 L 382 156 L 382 154 L 380 151 L 380 149 L 378 146 L 378 144 L 376 141 L 376 139 L 374 136 L 374 134 L 372 131 L 372 129 L 371 129 L 371 188 L 370 189 L 352 189 L 351 188 L 351 92 Z M 286 92 L 289 91 L 333 91 L 337 93 L 340 96 L 341 98 L 341 182 L 337 187 L 333 189 L 289 189 L 285 187 L 281 183 L 281 97 Z M 303 105 L 302 106 L 302 174 L 303 175 L 318 175 L 320 173 L 320 106 L 319 105 Z M 251 91 L 269 91 L 270 92 L 270 188 L 269 189 L 251 189 L 250 188 L 250 92 Z M 231 91 L 235 93 L 239 98 L 239 138 L 237 140 L 200 158 L 200 188 L 199 189 L 180 189 L 179 188 L 179 92 L 180 91 Z M 217 105 L 200 105 L 200 141 L 218 132 L 218 106 Z M 148 91 L 167 91 L 168 92 L 168 188 L 167 189 L 148 189 L 147 188 L 147 92 Z M 82 92 L 85 91 L 128 91 L 135 95 L 137 99 L 137 123 L 136 124 L 117 124 L 116 123 L 116 107 L 115 105 L 98 105 L 97 107 L 97 173 L 98 175 L 115 175 L 116 173 L 116 151 L 117 150 L 136 150 L 137 151 L 137 181 L 133 187 L 129 189 L 85 189 L 78 185 L 76 181 L 76 100 L 78 95 Z M 10 93 L 14 91 L 58 91 L 62 93 L 66 97 L 66 113 L 65 114 L 46 114 L 45 113 L 45 106 L 43 105 L 29 105 L 27 107 L 27 120 L 31 121 L 38 125 L 40 125 L 47 129 L 49 129 L 56 133 L 58 133 L 66 138 L 66 183 L 61 188 L 58 189 L 14 189 L 10 187 L 7 184 L 6 182 L 6 153 L 7 152 L 26 152 L 27 153 L 27 173 L 29 175 L 43 175 L 45 174 L 45 144 L 12 128 L 10 128 L 6 125 L 6 98 Z M 0 82 L 0 85 L 452 85 L 452 82 Z M 0 6 L 0 79 L 453 79 L 453 6 Z M 409 9 L 411 8 L 443 8 L 448 12 L 448 73 L 445 76 L 442 77 L 412 77 L 407 74 L 406 72 L 406 12 Z M 421 18 L 421 67 L 433 67 L 434 65 L 434 19 L 433 18 Z M 355 8 L 372 8 L 373 9 L 385 41 L 385 9 L 386 8 L 398 8 L 399 9 L 399 76 L 398 77 L 386 77 L 385 76 L 369 35 L 368 35 L 368 76 L 367 77 L 355 77 L 354 76 L 354 9 Z M 333 8 L 346 8 L 347 9 L 347 76 L 346 77 L 333 77 L 332 76 L 332 9 Z M 283 8 L 319 8 L 325 13 L 325 21 L 297 64 L 298 67 L 309 67 L 310 66 L 310 59 L 311 58 L 324 58 L 325 59 L 325 72 L 321 76 L 319 77 L 283 77 L 282 76 L 282 64 L 310 20 L 309 18 L 298 18 L 297 19 L 297 25 L 296 26 L 283 26 L 282 25 L 282 9 Z M 234 8 L 270 8 L 275 12 L 275 22 L 269 30 L 268 33 L 247 65 L 249 67 L 259 67 L 260 66 L 260 59 L 261 58 L 274 58 L 275 59 L 275 72 L 273 75 L 269 77 L 234 77 L 233 76 L 233 63 L 260 21 L 259 18 L 248 18 L 247 20 L 247 25 L 246 26 L 234 26 L 233 25 L 233 9 Z M 195 8 L 207 8 L 208 9 L 210 19 L 214 31 L 214 34 L 215 35 L 215 38 L 216 39 L 216 42 L 217 43 L 217 46 L 218 47 L 218 50 L 219 51 L 219 54 L 220 55 L 220 58 L 221 59 L 221 62 L 222 63 L 222 66 L 223 67 L 223 70 L 224 71 L 224 74 L 225 75 L 224 77 L 211 77 L 210 76 L 210 72 L 208 66 L 192 66 L 191 73 L 189 77 L 177 77 L 176 76 L 178 66 L 182 54 L 182 51 L 184 47 L 186 36 L 188 32 L 190 21 L 192 17 L 193 10 Z M 201 32 L 200 33 L 195 56 L 206 56 L 205 50 L 204 49 L 204 45 L 202 40 Z M 131 8 L 163 8 L 165 9 L 168 13 L 168 23 L 167 24 L 154 24 L 152 18 L 141 18 L 140 19 L 140 65 L 141 67 L 152 67 L 153 66 L 153 41 L 147 41 L 146 40 L 146 32 L 147 31 L 167 31 L 168 32 L 168 72 L 162 77 L 131 77 L 126 73 L 126 12 Z M 88 8 L 100 8 L 101 9 L 104 23 L 106 27 L 106 30 L 109 39 L 109 42 L 110 43 L 110 46 L 111 47 L 111 50 L 112 51 L 112 54 L 113 55 L 113 58 L 114 59 L 114 62 L 115 63 L 115 66 L 116 67 L 116 70 L 117 71 L 117 74 L 118 75 L 117 77 L 104 77 L 103 76 L 103 72 L 101 66 L 85 66 L 84 73 L 82 77 L 70 77 L 69 76 L 71 66 L 75 54 L 75 51 L 77 47 L 79 36 L 81 32 L 83 21 L 85 17 L 86 10 Z M 94 32 L 93 33 L 88 56 L 99 56 L 98 50 L 97 49 L 97 45 L 95 40 Z M 5 8 L 23 8 L 24 9 L 33 41 L 43 9 L 44 8 L 60 8 L 61 9 L 61 76 L 60 77 L 47 77 L 46 76 L 46 37 L 33 75 L 28 64 L 19 37 L 18 37 L 18 76 L 17 77 L 5 77 L 4 76 L 4 9 Z M 0 0 L 0 3 L 453 3 L 453 0 Z" fill="#000000" fill-rule="evenodd"/>
</svg>
