<?xml version="1.0" encoding="UTF-8"?>
<svg id="Livello_2" data-name="Livello 2" xmlns="http://www.w3.org/2000/svg" viewBox="0 0 454 191">
  <g id="Livello_1-2" data-name="Livello 1">
    <g id="logo">
      <polyline points="454 84 0 84 0 82 451.34 81.5 450.76 78 0 78.01 0 76 454 76 454 84"/>
      <rect width="454" height="2"/>
      <rect y="189" width="454" height="2"/>
      <path d="M378,88c4.55,13.45,9.19,26.97,14.25,40.24.68,1.79,1.33,6.43,3.75,5.76v-46h19v97h-19l-25-60v60h-19v-97h26Z"/>
      <path d="M290.22,88.24c6.57-1.19,35.97-1.21,42.7-.17,18.47-.22,4.38,72.41,8.59,88.46-.03,3.72-2.94,6.62-6.3,7.71-9.36.53-44.98,5.49-52.21-4.24v-86.96c1.89-2.45,4.09-4.22,7.22-4.79ZM303.5,101l-1.5,1.5v68l1.5,1.5h15c.18,0,2.5-2.32,2.5-2.5v-67l-1.5-1.5h-16Z"/>
      <path d="M137,120h-21v-17.5l-1.5-1.5h-15c-3.97,4.49-4,66.33,0,71h15l1.5-1.5v-23l1.5-1.5h19.5v32.5c0,2.14-5.11,6.06-7.56,6.44-7.85,1.24-34.67.99-42.94.06-5.64-.64-9.55-3.52-9.55-9.45,1.82-25.16-2.26-53.3,0-78.09.57-6.21,3.45-8.76,9.55-9.45,9.02-1.03,31.97-1.02,41,0,3.08.35,9.5,3.13,9.5,6.5v25.5Z"/>
      <path d="M66,110h-19.68l-.59-8.11c-15.34-2.51-20.74-3-18.62,14.45l38.88,17.65-.04,45.99c-7.55,9.91-36.93,4.68-48.43,5.08-3.18-.3-10.54-3-10.54-6.55v-29.5h20v20.5c0,3.78,15.96,2.79,19,1.5v-30.5L7.48,122.02c1.01-11.55-6.92-32.45,9.97-34.07,8.33-.8,32.13-1.1,39.99.11,1.93.3,8.56,3.94,8.56,5.44v16.5Z"/>
      <path d="M200,185h-20v-97c62.84,2.98,60.62-15.82,58.84,46.34l-38.84,20.16v30.5ZM219,129v-26.5l-1.5-1.5h-17.5v37l19-9Z"/>
      <rect x="148" y="88" width="20" height="97"/>
      <rect x="426" y="88" width="20" height="97"/>
      <rect x="251" y="88" width="19" height="97"/>
      <path d="M24,5l9.5,33.01L44,5h17v68h-14v-40l-13.5,38.01c-5.06-11.64-8.39-24.07-13.25-35.81-.62-1.49.62-2.71-2.25-2.2v40H5V5h19Z"/>
      <path d="M373,5c3.82,9.73,6.49,20.22,10.73,29.77.54,1.22.5,2.97,2.27,3.23V5h13v68l-12.84-.17-15.93-40.55-2.23-1.28v42h-13V5h18Z"/>
      <path d="M408.76,70.75c-3.05-3.22-.66-54.58-.76-62.75,2.27-4.6,36.96-5.42,40,0v62.02c-2.39,4.69-35.15,4.67-39.24.73ZM421,14v50l12.33.04c1.39-.32,1.62-4.22,1.71-5.5,1-13.95-.47-29.59-.48-43.61l-13.56-.94Z"/>
      <path d="M168,20h-14c-.02-1.95.66-5.1-1.64-5.86l-11.92.8c-.01,14.01-1.48,29.65-.48,43.61.09,1.28.32,5.18,1.71,5.5,3.92-.59,9.29,1.42,12.33-1.54v-25.5h-7s0-9,0-9h20.99v40.5c0,1.68-5.53,4.28-7.57,4.52-8.19-.24-27.25,3.29-33.43-3.02l.43-62.58c5.7-5.16,29.08-2.43,35.79-2.21,6.61,1.51,4.51,9.67,4.77,14.79Z"/>
      <path d="M211,73l-1.88-10.42-17.07-.54-2.14,9.95h-12.9L194.48,5.98l12.91-1.04,17.61,68.06h-14ZM207,53l-5.49-24.99c-3.52,7.72-4.85,16.67-6.5,24.99h11.99Z"/>
      <path d="M104,73l-1.88-10.42-17.07-.54-2.14,9.95h-12.9L87.48,5.98l12.91-1.04,17.61,68.06h-14ZM100,53l-5.49-24.99c-1.66,2.74-7.42,24.08-6.51,24.99h12Z"/>
      <path d="M311,55h14c-.49,6.62,2.52,15.19-5.5,18,0,0-36.5,0-36.5,0l.78-13.72,27.08-42.96c.34-3.85-9.95-2.03-12.22-2.18l-1.5,1.5-.14,6.36h-14V5h36.5c4.53,0,7.18,9.27,5.04,13.05l-27.57,43.48c-.06,4.04,10.55,2.42,13.09,2.04l.94-8.56Z"/>
      <path d="M261,55h14c-.5,3.71,1.2,13.21-1.26,15.75-.17.17-4,2.25-4.24,2.25h-35.5l.45-14.05,26.57-42.5-1.67-2.3-10.68-.2-1.66,8.05h-13.01V5h36.5c5.05,0,5.18,9.69,4.26,13.26l-27.55,43.25c.23,3.41,10.38,2.83,12.86,2.05l.94-8.56Z"/>
      <rect x="333" y="5" width="14" height="68"/>
    </g>
  </g>
</svg>
